<svg xmlns="http://www.w3.org/2000/svg" xmlns:xlink="http://www.w3.org/1999/xlink" width="417" height="417" viewBox="0 0 417 417">
  <defs>
    <clipPath id="clip-logo_4">
      <rect width="417" height="417"/>
    </clipPath>
  </defs>
  <g id="logo_4" data-name="logo 4" clip-path="url(#clip-logo_4)">
    <g id="Group_35" data-name="Group 35" transform="translate(985 17.506)">
      <g id="Group_37" data-name="Group 37" transform="translate(-991 -800)">
        <circle id="Ellipse_1" data-name="Ellipse 1" cx="2.75" cy="2.75" r="2.75" transform="translate(262.416 1067.75)"/>
        <circle id="Ellipse_1-2" data-name="Ellipse 1" cx="2.75" cy="2.75" r="2.75" transform="translate(250.918 1048.75)"/>
        <circle id="Ellipse_1-3" data-name="Ellipse 1" cx="2.75" cy="2.75" r="2.75" transform="translate(238.918 1029.75)"/>
        <g id="Group_36" data-name="Group 36">
          <path id="Path_8" data-name="Path 8" d="M210.372,821.161c75.614,0,117.261,0,143.546,26.28s26.289,67.94,26.289,143.55,0,117.266-26.289,143.551-67.932,26.284-143.546,26.284-117.266,0-143.546-26.284-26.289-67.936-26.289-143.551,0-117.261,26.289-143.55,67.931-26.28,143.546-26.28m0-5.505c-76.835,0-119.542,0-147.439,27.9s-27.9,70.6-27.9,147.433,0,119.542,27.9,147.443,70.6,27.9,147.439,27.9,119.541,0,147.443-27.9,27.892-70.608,27.892-147.443,0-119.542-27.892-147.433-70.614-27.9-147.443-27.9" transform="translate(4.128)"/>
          <path id="Path_211" data-name="Path 211" d="M4681.5,1118.8l-12.944-1.209-14.045-3.576-23.208-8.635-13.268-12.314-9.036-12.5v-10.969l52.106-85.964,4.55-10.941,2.908-9.276V896.22l-19.433-.807-13.166-3.587-4.662-8.807,4.662-9.059h94.184l4.932,9.059-4.932,8.807-13.491,3.587-22.024.807v67.192l4.16,9.276,5.742,10.355,55.124,88.913v8.607l-9.924,12.5-14.655,12.314-25.486,8.635-13.126,3.576Z" transform="translate(-4464.829 -0.051)" fill="none" stroke="#000" stroke-linecap="round" stroke-width="5.5"/>
          <path id="Path_213" data-name="Path 213" d="M29.664,0H0" transform="translate(265.166 1070.5)" fill="none" stroke="#000" stroke-width="5.5"/>
          <path id="Path_213-2" data-name="Path 213" d="M29.664,0H0" transform="translate(253.668 1051.5)" fill="none" stroke="#000" stroke-width="5.5"/>
          <path id="Path_213-3" data-name="Path 213" d="M29.664,0H0" transform="translate(241.668 1032.5)" fill="none" stroke="#000" stroke-width="5.5"/>
          <path id="Path_213-4" data-name="Path 213" d="M29.664,0H0" transform="translate(229.668 1013.5)" fill="none" stroke="#000" stroke-width="5.5"/>
        </g>
        <circle id="Ellipse_1-4" data-name="Ellipse 1" cx="2.75" cy="2.75" r="2.75" transform="translate(226.918 1010.75)"/>
      </g>
    </g>
  </g>
</svg>
