<svg width="36" height="36" viewBox="0 0 36 36" fill="none" xmlns="http://www.w3.org/2000/svg">
<path d="M3.57194 3.57355L3.57355 3.57194C4.79714 2.34556 6.37314 1.68775 8.68919 1.34759C11.0392 1.00245 14.0222 1 17.9967 1C21.9712 1 24.9545 1.00243 27.3055 1.34683C29.6222 1.68621 31.2004 2.34254 32.4273 3.56622C33.6543 4.79331 34.3122 6.37149 34.6524 8.68833C34.9976 11.0391 35 14.0222 35 17.9967C35 21.9712 34.9976 24.9543 34.6524 27.3051C34.3122 29.622 33.6543 31.2002 32.4273 32.4273C31.2003 33.6542 29.6207 34.3122 27.3027 34.6524C24.9511 34.9976 21.9679 35 17.9967 35C14.0255 35 11.0424 34.9976 8.69159 34.6524C6.37446 34.3122 4.79699 33.6543 3.57355 32.4281L3.57275 32.4273C2.34581 31.2003 1.68782 29.6207 1.3476 27.3027C1.00244 24.9511 1 21.9679 1 17.9967C1 14.0255 1.00244 11.0424 1.3476 8.69159C1.68781 6.37446 2.34571 4.79699 3.57194 3.57355Z" stroke="white" stroke-width="2"/>
<path fill-rule="evenodd" clip-rule="evenodd" d="M26.6078 10.7807C27.5501 11.0345 28.2931 11.7774 28.5468 12.7198C29.0181 14.4413 28.9999 18.0295 28.9999 18.0295C28.9999 18.0295 28.9999 21.5994 28.5469 23.321C28.2931 24.2633 27.5503 25.0063 26.6078 25.26C24.8862 25.7131 18 25.7131 18 25.7131C18 25.7131 11.1317 25.7131 9.39215 25.242C8.44969 24.9882 7.7068 24.2452 7.45302 23.3029C7 21.5994 7 18.0114 7 18.0114C7 18.0114 7 14.4413 7.45302 12.7198C7.70663 11.7776 8.46782 11.0164 9.39198 10.7628C11.1136 10.3096 17.9998 10.3096 17.9998 10.3096C17.9998 10.3096 24.8862 10.3096 26.6078 10.7807ZM21.5337 18.0114L15.8073 21.3096V14.7132L21.5337 18.0114Z" fill="white"/>
</svg>
